<svg width="105" height="18" viewBox="0 0 105 18" fill="none" xmlns="http://www.w3.org/2000/svg">
<path d="M0.179145 17.6586L2.96324 0.888515H12.6912L12.4619 2.26418H4.26521L3.21708 8.57752H10.8979L10.6686 9.95319H2.9878L1.93967 16.2829H10.3001L10.0709 17.6586H0.179145ZM14.3561 17.6586H12.7511L21.6356 0.888515H23.2733L26.5897 17.6586H24.9847L22.1925 2.87832H22.086L14.3561 17.6586ZM16.5833 11.2306H24.9029L24.6736 12.6063H16.3541L16.5833 11.2306ZM41.1023 5.1711C41.1405 4.18848 40.8485 3.41876 40.2262 2.86194C39.6093 2.30513 38.744 2.02672 37.6304 2.02672C36.8552 2.02672 36.1456 2.16319 35.5014 2.43614C34.8627 2.70363 34.3359 3.07212 33.921 3.54159C33.5116 4.01106 33.2577 4.54605 33.1595 5.14654C33.0885 5.58872 33.1213 5.9763 33.2577 6.3093C33.3942 6.63684 33.6044 6.92071 33.8883 7.16091C34.1721 7.4011 34.4969 7.60582 34.8627 7.77505C35.2339 7.94427 35.6106 8.08621 35.9927 8.20085L37.6877 8.70854C38.19 8.85593 38.6895 9.04426 39.1862 9.27354C39.683 9.50282 40.1252 9.78942 40.5128 10.1333C40.9004 10.4773 41.1869 10.9003 41.3726 11.4026C41.5636 11.9048 41.6018 12.5053 41.4872 13.204C41.3343 14.1102 40.9686 14.9209 40.3899 15.636C39.8167 16.3457 39.0634 16.908 38.1299 17.3228C37.1964 17.7377 36.1183 17.9452 34.8954 17.9452C33.7545 17.9452 32.7937 17.7568 32.0131 17.3802C31.2325 16.998 30.6565 16.4712 30.2853 15.7998C29.9141 15.1283 29.7722 14.3504 29.8595 13.4661H31.4317C31.3717 14.1266 31.4945 14.6861 31.8002 15.1447C32.1114 15.6033 32.5535 15.9526 33.1267 16.1928C33.7054 16.4276 34.3714 16.5449 35.1247 16.5449C35.96 16.5449 36.7269 16.4057 37.4257 16.1273C38.1244 15.8435 38.7004 15.4504 39.1535 14.9482C39.612 14.4405 39.8959 13.8509 40.0051 13.1795C40.1033 12.6117 40.0351 12.1341 39.8004 11.7465C39.5711 11.3589 39.2135 11.0341 38.7277 10.772C38.2473 10.5045 37.6741 10.2698 37.0081 10.0678L35.092 9.47825C33.8419 9.09612 32.9111 8.55841 32.2997 7.86512C31.6937 7.17183 31.4781 6.28747 31.6528 5.21204C31.8057 4.30585 32.1796 3.51156 32.7746 2.82919C33.3751 2.14136 34.1203 1.60637 35.0101 1.22424C35.8999 0.842113 36.8607 0.651048 37.8924 0.651048C38.9351 0.651048 39.8222 0.844842 40.5537 1.23243C41.2907 1.62002 41.8366 2.155 42.1914 2.83738C42.5517 3.51429 42.6854 4.2922 42.5926 5.1711H41.1023ZM46.0999 0.888515H47.8441L51.5044 8.84774H51.6681L57.9487 0.888515H59.7256L52.0939 10.3954L50.8902 17.6586H49.3672L50.5627 10.3954L46.0999 0.888515ZM69.901 0.888515V17.6586H66.3554V0.888515H69.901ZM73.2793 17.6586V0.888515H79.8956C81.1676 0.888515 82.2512 1.13144 83.1464 1.61729C84.0417 2.09768 84.7241 2.76641 85.1936 3.62347C85.6685 4.47508 85.906 5.4577 85.906 6.57134C85.906 7.68497 85.6658 8.66759 85.1854 9.5192C84.705 10.3708 84.009 11.0341 83.0973 11.509C82.1911 11.9839 81.0939 12.2214 79.8055 12.2214H75.5885V9.37999H79.2323C79.9147 9.37999 80.477 9.26262 80.9192 9.02789C81.3668 8.78769 81.6998 8.45742 81.9182 8.03708C82.142 7.61128 82.2539 7.1227 82.2539 6.57134C82.2539 6.01452 82.142 5.52867 81.9182 5.11378C81.6998 4.69344 81.3668 4.36863 80.9192 4.13935C80.4715 3.90461 79.9038 3.78725 79.216 3.78725H76.8249V17.6586H73.2793ZM104.081 9.27354C104.081 11.1023 103.734 12.6581 103.041 13.941C102.353 15.2239 101.414 16.2037 100.224 16.8807C99.0395 17.5521 97.7075 17.8878 96.2282 17.8878C94.7379 17.8878 93.4004 17.5494 92.2158 16.8725C91.0312 16.1956 90.095 15.2157 89.4071 13.9328C88.7193 12.6499 88.3754 11.0968 88.3754 9.27354C88.3754 7.44478 88.7193 5.88896 89.4071 4.6061C90.095 3.32323 91.0312 2.34607 92.2158 1.67461C93.4004 0.997695 94.7379 0.659236 96.2282 0.659236C97.7075 0.659236 99.0395 0.997695 100.224 1.67461C101.414 2.34607 102.353 3.32323 103.041 4.6061C103.734 5.88896 104.081 7.44478 104.081 9.27354ZM100.486 9.27354C100.486 8.08894 100.309 7.08994 99.9539 6.27655C99.6046 5.46316 99.1105 4.84629 98.4718 4.42595C97.8331 4.00561 97.0852 3.79543 96.2282 3.79543C95.3711 3.79543 94.6232 4.00561 93.9845 4.42595C93.3458 4.84629 92.849 5.46316 92.4942 6.27655C92.1448 7.08994 91.9701 8.08894 91.9701 9.27354C91.9701 10.4581 92.1448 11.4571 92.4942 12.2705C92.849 13.0839 93.3458 13.7008 93.9845 14.1211C94.6232 14.5415 95.3711 14.7517 96.2282 14.7517C97.0852 14.7517 97.8331 14.5415 98.4718 14.1211C99.1105 13.7008 99.6046 13.0839 99.9539 12.2705C100.309 11.4571 100.486 10.4581 100.486 9.27354Z" fill="#03AC00"/>
</svg>
