<svg width="20" height="18" viewBox="0 0 20 18" fill="none" xmlns="http://www.w3.org/2000/svg">
<path d="M9.10161 0.889503C9.30292 0.284781 10.1583 0.284781 10.3596 0.889502L12.1098 6.14727C12.2 6.4181 12.4534 6.60081 12.7388 6.60081H18.3679C19.014 6.60081 19.2784 7.43076 18.7514 7.80448L14.2252 11.0143C13.9872 11.183 13.8875 11.4876 13.9797 11.7644L15.715 16.9774C15.9174 17.5853 15.2252 18.0982 14.7025 17.7275L10.1141 14.4736C9.88437 14.3107 9.57683 14.3107 9.34712 14.4736L4.75866 17.7275C4.23601 18.0982 3.54382 17.5853 3.7462 16.9774L5.48153 11.7644C5.57368 11.4876 5.47401 11.183 5.23602 11.0143L0.70984 7.80448C0.182837 7.43076 0.447247 6.60081 1.09332 6.60081H6.72239C7.00783 6.60081 7.26123 6.4181 7.35138 6.14727L9.10161 0.889503Z" fill="#DEDEDE"/>
</svg>
