<svg width="93" height="92" viewBox="0 0 93 92" fill="none" xmlns="http://www.w3.org/2000/svg">
<circle cx="46.5" cy="46" r="43.6258" stroke="#DCDCDC" stroke-width="4.74839"/>
<mask id="path-2-inside-1_309_207" fill="white">
<path d="M92.5 46C92.5 52.0408 91.3102 58.0225 88.9985 63.6034C86.6867 69.1844 83.2984 74.2554 79.0269 78.5269C74.7554 82.7984 69.6844 86.1867 64.1034 88.4985C58.5225 90.8102 52.5408 92 46.5 92L46.5 87.3927C51.9358 87.3927 57.3183 86.3221 62.3403 84.2419C67.3623 82.1617 71.9254 79.1128 75.7691 75.2691C79.6127 71.4254 82.6617 66.8623 84.7419 61.8403C86.8221 56.8183 87.8927 51.4358 87.8927 46H92.5Z"/>
</mask>
<path d="M92.5 46C92.5 52.0408 91.3102 58.0225 88.9985 63.6034C86.6867 69.1844 83.2984 74.2554 79.0269 78.5269C74.7554 82.7984 69.6844 86.1867 64.1034 88.4985C58.5225 90.8102 52.5408 92 46.5 92L46.5 87.3927C51.9358 87.3927 57.3183 86.3221 62.3403 84.2419C67.3623 82.1617 71.9254 79.1128 75.7691 75.2691C79.6127 71.4254 82.6617 66.8623 84.7419 61.8403C86.8221 56.8183 87.8927 51.4358 87.8927 46H92.5Z" stroke="#0EB30D" stroke-width="9.49677" mask="url(#path-2-inside-1_309_207)"/>
</svg>
