<svg width="20" height="18" viewBox="0 0 20 18" fill="none" xmlns="http://www.w3.org/2000/svg">
<path d="M9.23638 0.889503C9.43768 0.284781 10.293 0.284781 10.4944 0.889502L12.2446 6.14727C12.3347 6.4181 12.5881 6.60081 12.8736 6.60081H18.5027C19.1487 6.60081 19.4131 7.43076 18.8861 7.80448L14.36 11.0143C14.122 11.183 14.0223 11.4876 14.1144 11.7644L15.8498 16.9774C16.0521 17.5853 15.36 18.0982 14.8373 17.7275L10.2488 14.4736C10.0191 14.3107 9.71159 14.3107 9.48189 14.4736L4.89343 17.7275C4.37077 18.0982 3.67859 17.5853 3.88096 16.9774L5.61629 11.7644C5.70844 11.4876 5.60877 11.183 5.37078 11.0143L0.844606 7.80449C0.317603 7.43076 0.582013 6.60081 1.22808 6.60081H6.85716C7.1426 6.60081 7.39599 6.4181 7.48615 6.14727L9.23638 0.889503Z" fill="#FFE108"/>
</svg>
